<svg width="19" height="19" viewBox="0 0 19 19" fill="none" xmlns="http://www.w3.org/2000/svg">
<path d="M12.625 3.25195H17.3125C17.5197 3.25195 17.7184 3.33426 17.8649 3.48078C18.0114 3.62729 18.0938 3.826 18.0938 4.0332C18.0938 4.2404 18.0114 4.43912 17.8649 4.58563C17.7184 4.73214 17.5197 4.81445 17.3125 4.81445H16.4484L15.2734 15.402C15.1673 16.3575 14.7125 17.2403 13.9961 17.8815C13.2797 18.5226 12.352 18.8771 11.3906 18.877H7.60938C6.64797 18.8771 5.72029 18.5226 5.00389 17.8815C4.28749 17.2403 3.8327 16.3575 3.72656 15.402L2.55 4.81445H1.6875C1.4803 4.81445 1.28159 4.73214 1.13507 4.58563C0.98856 4.43912 0.90625 4.2404 0.90625 4.0332C0.90625 3.826 0.98856 3.62729 1.13507 3.48078C1.28159 3.33426 1.4803 3.25195 1.6875 3.25195H6.375C6.375 2.42315 6.70424 1.6283 7.29029 1.04224C7.87634 0.456193 8.6712 0.126953 9.5 0.126953C10.3288 0.126953 11.1237 0.456193 11.7097 1.04224C12.2958 1.6283 12.625 2.42315 12.625 3.25195ZM9.5 1.68945C9.0856 1.68945 8.68817 1.85407 8.39515 2.1471C8.10212 2.44012 7.9375 2.83755 7.9375 3.25195H11.0625C11.0625 2.83755 10.8979 2.44012 10.6049 2.1471C10.3118 1.85407 9.9144 1.68945 9.5 1.68945ZM7.15625 7.93945V14.1895C7.15625 14.3967 7.23856 14.5954 7.38507 14.7419C7.53159 14.8884 7.7303 14.9707 7.9375 14.9707C8.1447 14.9707 8.34341 14.8884 8.48993 14.7419C8.63644 14.5954 8.71875 14.3967 8.71875 14.1895V7.93945C8.71875 7.73225 8.63644 7.53354 8.48993 7.38703C8.34341 7.24051 8.1447 7.1582 7.9375 7.1582C7.7303 7.1582 7.53159 7.24051 7.38507 7.38703C7.23856 7.53354 7.15625 7.73225 7.15625 7.93945ZM11.0625 7.1582C10.8553 7.1582 10.6566 7.24051 10.5101 7.38703C10.3636 7.53354 10.2812 7.73225 10.2812 7.93945V14.1895C10.2812 14.3967 10.3636 14.5954 10.5101 14.7419C10.6566 14.8884 10.8553 14.9707 11.0625 14.9707C11.2697 14.9707 11.4684 14.8884 11.6149 14.7419C11.7614 14.5954 11.8438 14.3967 11.8438 14.1895V7.93945C11.8438 7.73225 11.7614 7.53354 11.6149 7.38703C11.4684 7.24051 11.2697 7.1582 11.0625 7.1582Z" fill="white"/>
</svg>
